#tb 0: 1/15
0,          0,          0,        1,    48600, 0x72d4193b
0,          1,          1,        1,    48600, 0x72d4193b
0,          2,          2,        1,    48600, 0x36abd6f3
0,          3,          3,        1,    48600, 0x99e582f7
0,          4,          4,        1,    48600, 0xa4cb6fb7
0,          5,          5,        1,    48600, 0xf9b5657b
0,          6,          6,        1,    48600, 0xb7d666a4
0,          7,          7,        1,    48600, 0xb7345308
0,          8,          8,        1,    48600, 0x4f5339b9
0,          9,          9,        1,    48600, 0x1a9a02c7
0,         10,         10,        1,    48600, 0x4ed40866
0,         11,         11,        1,    48600, 0x635bf2af
0,         12,         12,        1,    48600, 0x12c02f49
0,         13,         13,        1,    48600, 0xc548a36d
0,         14,         14,        1,    48600, 0x9d9ffbf0
0,         15,         15,        1,    48600, 0x4f9dba66
0,         16,         16,        1,    48600, 0x2332b0e4
0,         17,         17,        1,    48600, 0x6c64342d
0,         18,         18,        1,    48600, 0x81156d54
0,         19,         19,        1,    48600, 0x8bfb9f04
0,         20,         20,        1,    48600, 0xd6bc38db
0,         21,         21,        1,    48600, 0x64de39d7
0,         22,         22,        1,    48600, 0xbddb3c37
0,         23,         23,        1,    48600, 0x15b75a31
0,         24,         24,        1,    48600, 0xa2dd7bdf
0,         25,         25,        1,    48600, 0xe4fb9b25
0,         26,         26,        1,    48600, 0xf2788234
0,         27,         27,        1,    48600, 0xa481a3d0
0,         28,         28,        1,    48600, 0x6087c790
0,         29,         29,        1,    48600, 0xf1dacfa1
0,         30,         30,        1,    48600, 0xe29e2e78
0,         31,         31,        1,    48600, 0x505b2db1
0,         32,         32,        1,    48600, 0x7bc56b02
0,         33,         33,        1,    48600, 0x3f7640de
0,         34,         34,        1,    48600, 0xd21a3f0b
0,         35,         35,        1,    48600, 0x92dc9b72
0,         36,         36,        1,    48600, 0x26e6804e
0,         37,         37,        1,    48600, 0xc3867fdc
0,         38,         38,        1,    48600, 0xe135c689
0,         39,         39,        1,    48600, 0xf0fda68b
0,         40,         40,        1,    48600, 0x7e07a430
0,         41,         41,        1,    48600, 0xb0809c56
0,         42,         42,        1,    48600, 0xd3f3d4b0
0,         43,         43,        1,    48600, 0x068ce7b9
0,         44,         44,        1,    48600, 0x3ae5ebb7
0,         45,         45,        1,    48600, 0x2274d1d8
0,         46,         46,        1,    48600, 0x9a2b95b7
0,         47,         47,        1,    48600, 0xe864dc3d
0,         48,         48,        1,    48600, 0xdf39d4db
0,         49,         49,        1,    48600, 0x5155c707
0,         50,         50,        1,    48600, 0xa26e9879
0,         51,         51,        1,    48600, 0x91b5747c
0,         52,         52,        1,    48600, 0xe7925589
0,         53,         53,        1,    48600, 0x582f1cb2
0,         54,         54,        1,    48600, 0x13180bdb
0,         55,         55,        1,    48600, 0x1623d914
0,         56,         56,        1,    48600, 0xfeeea068
0,         57,         57,        1,    48600, 0x61f8679c
0,         58,         58,        1,    48600, 0xcb678447
0,         59,         59,        1,    48600, 0xd0028749
0,         60,         60,        1,    48600, 0xec116a9c
0,         61,         61,        1,    48600, 0x16926417
0,         62,         62,        1,    48600, 0x342c6014
0,         63,         63,        1,    48600, 0xb81a3ec3
0,         64,         64,        1,    48600, 0xfd0d4654
0,         65,         65,        1,    48600, 0x741cc27a
0,         66,         66,        1,    48600, 0x2c53a9fe
0,         67,         67,        1,    48600, 0x795dc493
0,         68,         68,        1,    48600, 0x46eebc82
0,         69,         69,        1,    48600, 0xa2b7b84b
0,         70,         70,        1,    48600, 0x2274c95e
0,         71,         71,        1,    48600, 0x0ba5ac69
0,         72,         72,        1,    48600, 0x8335eb20
0,         73,         73,        1,    48600, 0xca80ef55
0,         74,         74,        1,    48600, 0xbb7cec8a
0,         75,         75,        1,    48600, 0x775bdde2
0,         76,         76,        1,    48600, 0x68a5a673
0,         77,         77,        1,    48600, 0x091ccca2
0,         78,         78,        1,    48600, 0xced6d065
0,         79,         79,        1,    48600, 0xed7fca50
0,         80,         80,        1,    48600, 0x5c77be3f
0,         81,         81,        1,    48600, 0x84719fe6
0,         82,         82,        1,    48600, 0x571cc076
0,         83,         83,        1,    48600, 0xa3b5be2a
0,         84,         84,        1,    48600, 0x0218bc6f
0,         85,         85,        1,    48600, 0x5ec1fa4c
0,         86,         86,        1,    48600, 0xcd3035fa
0,         87,         87,        1,    48600, 0xb8d2a741
0,         88,         88,        1,    48600, 0x6d39847c
0,         89,         89,        1,    48600, 0x0ffefc73
0,         90,         90,        1,    48600, 0x2bb74b68
0,         91,         91,        1,    48600, 0xf541d49f
0,         92,         92,        1,    48600, 0x6f7c9066
0,         93,         93,        1,    48600, 0x70d58548
0,         94,         94,        1,    48600, 0x92d38b55
0,         95,         95,        1,    48600, 0x5f4bdaa6
0,         96,         96,        1,    48600, 0x43868008
0,         97,         97,        1,    48600, 0xddb8e551
0,         98,         98,        1,    48600, 0xcd0cbd5f
0,         99,         99,        1,    48600, 0xf97e6bbd
0,        100,        100,        1,    48600, 0x5f1b31eb
0,        101,        101,        1,    48600, 0x10ff924d
0,        102,        102,        1,    48600, 0xcc31ca3f
0,        103,        103,        1,    48600, 0x5f27f9ff
0,        104,        104,        1,    48600, 0xd6fe4b71
0,        105,        105,        1,    48600, 0xa7d3b2c4
0,        106,        106,        1,    48600, 0x9992d6c7
0,        107,        107,        1,    48600, 0xd283089b
0,        108,        108,        1,    48600, 0x6ab52ede
0,        109,        109,        1,    48600, 0x495b1bad
0,        110,        110,        1,    48600, 0x3a4d1b72
0,        111,        111,        1,    48600, 0xdb421ba3
0,        112,        112,        1,    48600, 0x8ad11baa
0,        113,        113,        1,    48600, 0x17701bcc
0,        114,        114,        1,    48600, 0x4b771b6a
0,        115,        115,        1,    48600, 0x5345067e
0,        116,        116,        1,    48600, 0x2cd403a7
0,        117,        117,        1,    48600, 0x2cc5fd60
0,        118,        118,        1,    48600, 0xfa9cf1d4
0,        119,        119,        1,    48600, 0x8498e2d6
0,        120,        120,        1,    48600, 0x93dcc863
0,        121,        121,        1,    48600, 0xd46ac5d5
0,        122,        122,        1,    48600, 0x34e8c01b
0,        123,        123,        1,    48600, 0x4ad3b246
0,        124,        124,        1,    48600, 0x9848a6ca
0,        125,        125,        1,    48600, 0x7b7e8bee
0,        126,        126,        1,    48600, 0xaee0896b
0,        127,        127,        1,    48600, 0x263a812c
0,        128,        128,        1,    48600, 0x5d7b7782
0,        129,        129,        1,    48600, 0x3a2b6ad2
0,        130,        130,        1,    48600, 0xcf2a4ef3
0,        131,        131,        1,    48600, 0xc0134c9b
0,        132,        132,        1,    48600, 0x93c342d2
0,        133,        133,        1,    48600, 0x8d90393c
